<svg width="512" height="512" viewBox="0 -8 120 120" fill="none" xmlns="http://www.w3.org/2000/svg">
        
      <!-- Left Bunny Ear -->
      <ellipse cx="45" cy="22" rx="8" ry="18" fill="#8db33a" transform="rotate(-15 45 22)"/>
      
      <!-- Right Bunny Ear -->
      <ellipse cx="75" cy="22" rx="8" ry="18" fill="#8db33a" transform="rotate(15 75 22)"/>
      
      <!-- Main Pin Shape -->
      <path d="M60 35 C 45 35, 35 45, 35 60 C 35 75, 60 100, 60 100 C 60 100, 85 75, 85 60 C 85 45, 75 35, 60 35 Z" fill="#6b8e23"/>
      
      <!-- Inner Circle (Face) -->
      <circle cx="60" cy="58" r="18" fill="#FFFFFF"/>
      
      <!-- Left Eye -->
      <circle cx="54" cy="56" r="3" fill="#4a6119"/>
      
      <!-- Right Eye -->
      <circle cx="66" cy="56" r="3" fill="#4a6119"/>
      
      <!-- Nose/Smile - cute tiny triangle nose -->
      <path d="M60 60 L58 62 L62 62 Z" fill="#4a6119"/>
      
      <!-- Smile -->
      <path d="M 55 64 Q 60 67, 65 64" stroke="#4a6119" stroke-width="1.5" stroke-linecap="round" fill="none"/>
      
      <!-- Whisker dots (left) -->
      <circle cx="48" cy="60" r="1" fill="#4a6119" opacity="0.6"/>
      
      <!-- Whisker dots (right) -->
      <circle cx="72" cy="60" r="1" fill="#4a6119" opacity="0.6"/>
    
      </svg>